<svg width="105" height="28" viewBox="0 0 105 28" fill="none" xmlns="http://www.w3.org/2000/svg">
<path d="M12.84 27.4C10.4933 27.4 8.4 26.88 6.56 25.84C4.74667 24.8 3.33333 23.2667 2.32 21.24C1.30667 19.2133 0.8 16.7467 0.8 13.84C0.8 11.0133 1.33333 8.58667 2.4 6.56C3.46667 4.50667 4.98667 2.93333 6.96 1.84C8.96 0.746666 11.3067 0.199999 14 0.199999C17.0133 0.199999 19.4267 0.746666 21.24 1.84C23.08 2.90667 24.5067 4.61333 25.52 6.96L19.16 9.48C18.8133 8.12 18.2 7.13333 17.32 6.52C16.44 5.90667 15.3467 5.6 14.04 5.6C12.0667 5.6 10.5333 6.30667 9.44 7.72C8.37333 9.10667 7.84 11.1333 7.84 13.8C7.84 16.6267 8.38667 18.7333 9.48 20.12C10.5733 21.48 12.2133 22.16 14.4 22.16C15.92 22.16 17.1867 21.8 18.2 21.08C19.2133 20.36 19.72 19.2533 19.72 17.76V17.36H13.68V12.76H25.56V27H20.88L20.6 23.76C19.8533 24.9333 18.8267 25.84 17.52 26.48C16.24 27.0933 14.68 27.4 12.84 27.4ZM37.1063 27.4C35.0796 27.4 33.4263 26.8533 32.1463 25.76C30.8663 24.6667 30.2263 22.8667 30.2263 20.36V7H37.0263V18.76C37.0263 20.04 37.2796 20.9333 37.7863 21.44C38.2929 21.9467 39.0129 22.2 39.9463 22.2C40.9063 22.2 41.7196 21.8533 42.3863 21.16C43.0796 20.44 43.4263 19.2933 43.4263 17.72V7H50.2263V27H44.1463L43.9463 23.24C43.3063 24.6533 42.4129 25.7067 41.2663 26.4C40.1196 27.0667 38.7329 27.4 37.1063 27.4ZM55.1119 27V7H61.1119L61.3919 11.32C61.8719 9.85333 62.6052 8.70667 63.5919 7.88C64.6052 7.02667 65.8985 6.6 67.4719 6.6C67.9785 6.6 68.4052 6.65333 68.7519 6.76C69.1252 6.84 69.4185 6.93333 69.6319 7.04L68.9519 12.64C68.6852 12.56 68.3385 12.48 67.9119 12.4C67.5119 12.32 67.0185 12.28 66.4319 12.28C65.2052 12.28 64.1385 12.6667 63.2319 13.44C62.3519 14.2133 61.9119 15.3733 61.9119 16.92V27H55.1119ZM79.0594 27.4C77.0327 27.4 75.3794 26.8533 74.0994 25.76C72.8194 24.6667 72.1794 22.8667 72.1794 20.36V7H78.9794V18.76C78.9794 20.04 79.2327 20.9333 79.7394 21.44C80.246 21.9467 80.966 22.2 81.8994 22.2C82.8594 22.2 83.6727 21.8533 84.3394 21.16C85.0327 20.44 85.3794 19.2933 85.3794 17.72V7H92.1794V27H86.0994L85.8994 23.24C85.2594 24.6533 84.366 25.7067 83.2194 26.4C82.0727 27.0667 80.686 27.4 79.0594 27.4Z" fill="#F7F7F7"/>
<path d="M100.425 20.12C101.678 20.12 102.652 20.44 103.345 21.08C104.065 21.72 104.425 22.6133 104.425 23.76C104.425 24.88 104.065 25.76 103.345 26.4C102.652 27.04 101.678 27.36 100.425 27.36C99.1717 27.36 98.185 27.04 97.465 26.4C96.7717 25.76 96.425 24.88 96.425 23.76C96.425 22.6133 96.7717 21.72 97.465 21.08C98.185 20.44 99.1717 20.12 100.425 20.12Z" fill="#FDCB9E"/>
</svg>
